<svg xmlns="http://www.w3.org/2000/svg" width="1200" height="700" viewBox="0 0 1200 700"><defs><linearGradient id="a" x1="0%" x2="100%" y1="0%" y2="100%"><stop offset="0%" style="stop-color:#f7f5f1"/><stop offset="100%" style="stop-color:#fff"/></linearGradient><linearGradient id="c" x1="0%" x2="100%" y1="0%" y2="100%"><stop offset="0%" style="stop-color:#fff"/><stop offset="100%" style="stop-color:#f7f5f1"/></linearGradient><filter id="b" width="140%" height="140%" x="-20%" y="-20%"><feDropShadow dx="0" dy="4" flood-color="#8fafc2" flood-opacity=".15" stdDeviation="8"/></filter></defs><path fill="url(#a)" d="M0 0h1200v700H0z"/><rect width="1120" height="56" x="40" y="30" fill="#fff" stroke="#e4e9e6" filter="url(#b)" rx="12"/><text x="60" y="65" fill="#23211c" font-family="Inter, system-ui" font-size="15" font-weight="600">Santé Connectée &amp; Biomarqueurs</text><circle cx="1120" cy="58" r="16" fill="#e8f5ff"/><text x="1120" y="62" fill="#8fafc2" dominant-baseline="middle" font-family="Inter" font-size="14" text-anchor="middle">⋯</text><rect width="240" height="540" x="40" y="110" fill="#fff" stroke="#e4e9e6" rx="16"/><text x="60" y="145" fill="#23211c" font-family="Inter" font-size="13" font-weight="600">MENU</text><g fill="#64748b" font-family="Inter" font-size="14"><text x="60" y="185">Dashboard</text><text x="60" y="220" fill="#23211c" font-weight="600">Biomarqueurs sanguins</text><text x="60" y="255">Wearables</text><text x="60" y="290">Sommeil</text><text x="60" y="325">Cardio</text><text x="60" y="360">Habitudes</text></g><rect width="860" height="540" x="300" y="110" fill="#fff" stroke="#e4e9e6" rx="16"/><text x="340" y="155" fill="#23211c" font-family="Inter" font-size="22" font-weight="700">Santé Connectée &amp; Biomarqueurs</text><text x="340" y="185" fill="#64748b" font-size="14">Centralisez biologie, wearables et habitudes pour une vision 360°</text><g transform="translate(340 220)"><rect width="200" height="140" fill="url(#c)" stroke="#e4e9e6" rx="12"/><rect width="180" height="30" x="10" y="10" fill="#fef3c7" rx="6"/><text x="100" y="30" fill="#ca8a04" font-family="Inter" font-size="12" font-weight="600" text-anchor="middle">Glycémie à jeun</text><text x="100" y="65" fill="#ca8a04" font-size="28" font-weight="700" text-anchor="middle">0.92</text><text x="100" y="90" fill="#64748b" font-size="11" text-anchor="middle">g/L • Ref: 0.70-1.00</text><text x="100" y="110" fill="#ef4444" font-size="11" text-anchor="middle">⚠ Légèrement élevé</text><rect width="200" height="140" x="220" fill="url(#c)" stroke="#e4e9e6" rx="12"/><rect width="180" height="30" x="230" y="10" fill="#fef3c7" rx="6"/><text x="320" y="30" fill="#ca8a04" font-family="Inter" font-size="12" font-weight="600" text-anchor="middle">HbA1c</text><text x="320" y="65" fill="#ca8a04" font-size="28" font-weight="700" text-anchor="middle">5.6</text><text x="320" y="90" fill="#64748b" font-size="11" text-anchor="middle">% • Ref: 4.0-5.6</text><text x="320" y="110" fill="#22c55e" font-size="11" text-anchor="middle">✓ Optimal</text><rect width="200" height="140" x="440" fill="url(#c)" stroke="#e4e9e6" rx="12"/><rect width="180" height="30" x="450" y="10" fill="#fef3c7" rx="6"/><text x="540" y="30" fill="#ca8a04" font-family="Inter" font-size="12" font-weight="600" text-anchor="middle">Vitamine D</text><text x="540" y="65" fill="#ca8a04" font-size="28" font-weight="700" text-anchor="middle">38</text><text x="540" y="90" fill="#64748b" font-size="11" text-anchor="middle">ng/mL • Ref: 30-100</text><text x="540" y="110" fill="#facc15" font-size="11" text-anchor="middle">⚠ Insuffisant</text><rect width="180" height="140" x="660" fill="url(#c)" stroke="#e4e9e6" rx="12"/><rect width="160" height="30" x="670" y="10" fill="#fef3c7" rx="6"/><text x="750" y="30" fill="#ca8a04" font-family="Inter" font-size="12" font-weight="600" text-anchor="middle">Ferritine</text><text x="750" y="65" fill="#ca8a04" font-size="28" font-weight="700" text-anchor="middle">45</text><text x="750" y="90" fill="#64748b" font-size="11" text-anchor="middle">ng/mL • Ref: 30-400</text><text x="750" y="110" fill="#22c55e" font-size="11" text-anchor="middle">✓ Normal</text></g><text y="20" fill="#23211c" font-family="Inter" font-size="18" font-weight="700" transform="translate(340 380)">Wearables connectés</text><g transform="translate(340 420)"><rect width="280" height="100" fill="url(#c)" stroke="#e4e9e6" rx="12"/><circle cx="40" cy="50" r="28" fill="#e8f5ff"/><text x="40" y="55" fill="#2a8aff" font-size="24" text-anchor="middle">💍</text><text x="90" y="45" fill="#23211c" font-family="Inter" font-size="16" font-weight="700">Oura Ring Gen 3</text><text x="90" y="70" fill="#64748b" font-size="12">Sommeil: 87/100 • VFC: 42ms • Prêt: 85%</text><rect width="280" height="100" x="300" fill="url(#c)" stroke="#e4e9e6" rx="12"/><circle cx="340" cy="50" r="28" fill="#e8f5ff"/><text x="340" y="55" fill="#2a8aff" font-size="24" text-anchor="middle">📱</text><text x="390" y="45" fill="#23211c" font-family="Inter" font-size="16" font-weight="700">Apple Health</text><text x="390" y="70" fill="#64748b" font-size="12">Pas: 8,452 • FC: 62bpm • VO2max: 48</text><rect width="280" height="100" x="600" fill="url(#c)" stroke="#e4e9e6" rx="12"/><circle cx="640" cy="50" r="28" fill="#e8f5e9"/><text x="640" y="55" fill="#16a34a" font-size="24" text-anchor="middle">🏃</text><text x="690" y="45" fill="#23211c" font-family="Inter" font-size="16" font-weight="700">Garmin Forerunner</text><text x="690" y="70" fill="#64748b" font-size="12">VO2max: 48 • Charge: 1,245 • Récup: 72%</text></g><g transform="translate(340 520)"><rect width="420" height="140" fill="#fafafa" stroke="#e4e9e6" rx="12"/><text x="20" y="25" fill="#23211c" font-family="Inter" font-size="16" font-weight="600">Score de sommeil (30 jours)</text><g fill="#8fafc2" opacity=".8"><rect width="40" height="-60" x="20" y="90" rx="3"/><rect width="40" height="-75" x="80" y="90" rx="3"/><rect width="40" height="-65" x="140" y="90" rx="3"/><rect width="40" height="-80" x="200" y="90" rx="3"/><rect width="40" height="-70" x="260" y="90" rx="3"/><rect width="40" height="-65" x="320" y="90" rx="3"/><rect width="40" height="-75" x="380" y="90" rx="3"/></g><rect width="420" height="140" x="440" fill="#fafafa" stroke="#e4e9e6" rx="12"/><text x="460" y="25" fill="#23211c" font-family="Inter" font-size="16" font-weight="600">VFC - rmssd (30 jours)</text><g fill="#8fafc2" opacity=".8"><rect width="40" height="-45" x="460" y="90" rx="3"/><rect width="40" height="-55" x="520" y="90" rx="3"/><rect width="40" height="-40" x="580" y="90" rx="3"/><rect width="40" height="-60" x="640" y="90" rx="3"/><rect width="40" height="-50" x="700" y="90" rx="3"/><rect width="40" height="-55" x="760" y="90" rx="3"/><rect width="40" height="-45" x="820" y="90" rx="3"/></g></g><rect width="380" height="56" x="340" y="640" fill="#8fafc2" filter="url(#b)" rx="12"/><text x="230" y="35" fill="#fff" font-family="Inter" font-size="15" font-weight="700" text-anchor="middle">Voir les tendances complètes</text><text x="370" y="35" fill="#fff" dominant-baseline="middle" font-size="14" text-anchor="middle">→</text><rect width="180" height="56" x="760" y="640" fill="transparent" stroke="#8fafc2" stroke-width="1.5" rx="12"/><text x="850" y="35" fill="#8fafc2" font-family="Inter" font-size="15" font-weight="600" text-anchor="middle">Configurer sync</text></svg>