<svg xmlns="http://www.w3.org/2000/svg" width="1200" height="700" viewBox="0 0 1200 700"><defs><linearGradient id="a" x1="0%" x2="100%" y1="0%" y2="100%"><stop offset="0%" style="stop-color:#f7f5f1"/><stop offset="100%" style="stop-color:#fff"/></linearGradient><linearGradient id="c" x1="0%" x2="100%" y1="0%" y2="100%"><stop offset="0%" style="stop-color:#fff"/><stop offset="100%" style="stop-color:#f7f5f1"/></linearGradient><filter id="b" width="140%" height="140%" x="-20%" y="-20%"><feDropShadow dx="0" dy="4" flood-color="#1466c4" flood-opacity=".15" stdDeviation="8"/></filter></defs><path fill="url(#a)" d="M0 0h1200v700H0z"/><rect width="1120" height="56" x="40" y="30" fill="#fff" stroke="#e4e9e6" filter="url(#b)" rx="12"/><text x="60" y="65" fill="#23211c" font-family="Inter, system-ui" font-size="15" font-weight="600">Nutrition Complète</text><circle cx="1120" cy="58" r="16" fill="#e8f5ff"/><text x="1120" y="62" fill="#1466c4" dominant-baseline="middle" font-family="Inter" font-size="14" text-anchor="middle">⋯</text><rect width="240" height="540" x="40" y="110" fill="#fff" stroke="#e4e9e6" rx="16"/><text x="60" y="145" fill="#23211c" font-family="Inter" font-size="13" font-weight="600">MENU</text><g fill="#64748b" font-family="Inter" font-size="14"><text x="60" y="185">Plan alimentaire</text><text x="60" y="220" fill="#23211c" font-weight="600">Liste de courses</text><text x="60" y="255">Compléments</text><text x="60" y="290">Journal alimentaire</text><text x="60" y="325">Templates</text><text x="60" y="360">Analyses</text></g><rect width="860" height="540" x="300" y="110" fill="#fff" stroke="#e4e9e6" rx="16"/><text x="340" y="155" fill="#23211c" font-family="Inter" font-size="22" font-weight="700">Plan Nutritionnel - Semaine 3</text><text x="340" y="185" fill="#64748b" font-size="14">Marie Dubois • Perte de gras • 1800 kcal/jour</text><g transform="translate(340 220)"><g font-family="Inter"><rect width="200" height="180" fill="url(#c)" stroke="#e4e9e6" rx="12"/><rect width="180" height="30" x="10" y="10" fill="#e8f5ff" rx="6"/><text x="100" y="30" fill="#1466c4" font-size="12" font-weight="600" text-anchor="middle">Petit-déjeuner</text><text x="100" y="65" fill="#1466c4" font-size="24" font-weight="700" text-anchor="middle">420 kcal</text><text x="100" y="90" fill="#64748b" font-size="11" text-anchor="middle">P: 35g • G: 45g • L: 12g</text><text x="100" y="115" fill="#64748b" font-size="10" text-anchor="middle">Fromage blanc, fruits rouges, granola</text><text x="100" y="145" fill="#1466c4" font-size="10" text-anchor="middle">✓ Validé par le coach</text><rect width="200" height="180" x="220" fill="url(#c)" stroke="#e4e9e6" rx="12"/><rect width="180" height="30" x="230" y="10" fill="#e8f5e9" rx="6"/><text x="320" y="30" fill="#16a34a" font-size="12" font-weight="600" text-anchor="middle">Déjeuner</text><text x="320" y="65" fill="#16a34a" font-size="24" font-weight="700" text-anchor="middle">680 kcal</text><text x="320" y="90" fill="#64748b" font-size="11" text-anchor="middle">P: 45g • G: 55g • L: 18g</text><text x="320" y="115" fill="#64748b" font-size="10" text-anchor="middle">Poulet, riz complet, légumes verts</text><text x="320" y="145" fill="#16a34a" font-size="10" text-anchor="middle">✓ Validé par le coach</text><rect width="200" height="180" x="440" fill="url(#c)" stroke="#e4e9e6" rx="12"/><rect width="180" height="30" x="450" y="10" fill="#fef3c7" rx="6"/><text x="540" y="30" fill="#ca8a04" font-size="12" font-weight="600" text-anchor="middle">Dîner</text><text x="540" y="65" fill="#ca8a04" font-size="24" font-weight="700" text-anchor="middle">520 kcal</text><text x="540" y="90" fill="#64748b" font-size="11" text-anchor="middle">P: 38g • G: 40g • L: 15g</text><text x="540" y="115" fill="#64748b" font-size="10" text-anchor="middle">Poisson, patate douce, brocolis</text><text x="540" y="145" fill="#ca8a04" font-size="10" text-anchor="middle">✓ Validé par le coach</text><rect width="180" height="180" x="660" fill="url(#c)" stroke="#e4e9e6" rx="12"/><rect width="160" height="30" x="670" y="10" fill="#fce7f3" rx="6"/><text x="750" y="30" fill="#be185d" font-size="12" font-weight="600" text-anchor="middle">Collation</text><text x="750" y="65" fill="#be185d" font-size="24" font-weight="700" text-anchor="middle">180 kcal</text><text x="750" y="90" fill="#64748b" font-size="11" text-anchor="middle">P: 15g • G: 18g • L: 6g</text><text x="750" y="115" fill="#64748b" font-size="10" text-anchor="middle">Yaourt, amandes, fruit</text><text x="750" y="145" fill="#be185d" font-size="10" text-anchor="middle">✓ Validé par le coach</text></g><rect width="840" height="100" y="200" fill="#e8f5ff" stroke="#bfdbfe" rx="12"/><text x="420" y="230" fill="#1466c4" font-family="Inter" font-size="16" font-weight="700" text-anchor="middle">Répartition journalière</text><g font-family="Inter" font-size="14" font-weight="600" text-anchor="middle"><text x="150" y="270" fill="#1466c4">Protéines: 133g (30%)</text><text x="300" y="270" fill="#16a34a">Glucides: 180g (40%)</text><text x="450" y="270" fill="#ca8a04">Lipides: 51g (30%)</text><text x="600" y="270" fill="#be185d">Collation: 5% (flexible)</text></g><rect width="840" height="140" y="320" fill="#fefce8" stroke="#fde047" rx="12"/><text x="20" y="350" fill="#ca8a04" font-family="Inter" font-size="16" font-weight="700">🛒 Liste de courses générée automatiquement</text><text x="20" y="375" fill="#64748b" font-size="12">• Poulet 1.2kg • Riz complet 500g • Brocolis 800g • Fromage blanc 1kg</text><text x="20" y="395" fill="#64748b" font-size="12">• Fruits rouges 400g • Granola 300g • Amandes 200g • Poisson 600g</text><text x="20" y="415" fill="#64748b" font-size="12">• Patates douces 1kg • Brocolis 600g • Yaourt 700g • Œufs 24</text><rect width="300" height="50" x="340" y="480" fill="#1466c4" filter="url(#b)" rx="12"/><text x="190" y="35" fill="#fff" font-family="Inter" font-size="15" font-weight="700" text-anchor="middle">Générer la liste de courses</text><rect width="180" height="50" x="660" y="480" fill="transparent" stroke="#1466c4" stroke-width="1.5" rx="12"/><text x="430" y="35" fill="#1466c4" font-family="Inter" font-size="15" font-weight="600" text-anchor="middle">Voir le plan complet</text></g><rect width="840" height="56" x="340" y="640" fill="#1466c4" filter="url(#b)" rx="12"/><text x="760" y="665" fill="#fff" font-family="Inter" font-size="15" font-weight="700" text-anchor="middle">Générer la liste de courses</text><text x="1100" y="665" fill="#fff" dominant-baseline="middle" font-size="14" text-anchor="middle">→</text></svg>