<svg xmlns="http://www.w3.org/2000/svg" width="1200" height="700" viewBox="0 0 1200 700"><defs><linearGradient id="a" x1="0%" x2="100%" y1="0%" y2="100%"><stop offset="0%" style="stop-color:#f7f5f1"/><stop offset="100%" style="stop-color:#fff"/></linearGradient><linearGradient id="c" x1="0%" x2="100%" y1="0%" y2="100%"><stop offset="0%" style="stop-color:#fff"/><stop offset="100%" style="stop-color:#f7f5f1"/></linearGradient><filter id="b" width="140%" height="140%" x="-20%" y="-20%"><feDropShadow dx="0" dy="4" flood-color="#433bff" flood-opacity=".15" stdDeviation="8"/></filter></defs><path fill="url(#a)" d="M0 0h1200v700H0z"/><rect width="1120" height="56" x="40" y="30" fill="#fff" stroke="#e4e9e6" filter="url(#b)" rx="12"/><text x="60" y="65" fill="#23211c" font-family="Inter, system-ui" font-size="15" font-weight="600">Sport &amp; Programmes</text><circle cx="1120" cy="58" r="16" fill="#e8e8f5"/><text x="1120" y="62" fill="#433bff" dominant-baseline="middle" font-family="Inter" font-size="14" text-anchor="middle">⋯</text><rect width="240" height="540" x="40" y="110" fill="#fff" stroke="#e4e9e6" rx="16"/><text x="60" y="145" fill="#23211c" font-family="Inter" font-size="13" font-weight="600">MENU</text><g fill="#64748b" font-family="Inter" font-size="14"><text x="60" y="185">Bibliothèque</text><text x="60" y="220" fill="#23211c" font-weight="600">Créer séance</text><text x="60" y="255">Programmes</text><text x="60" y="290">Progression</text><text x="60" y="325">Import FitFocus</text></g><rect width="860" height="540" x="300" y="110" fill="#fff" stroke="#e4e9e6" rx="16"/><text x="340" y="155" fill="#23211c" font-family="Inter" font-size="22" font-weight="700">Programme Force Hypertrophie - Semaine 3</text><text x="340" y="185" fill="#64748b" font-size="14">Thomas Bertrand • 4 séances/semaine • Force/Hypertrophie</text><g transform="translate(340 220)"><rect width="410" height="160" fill="url(#c)" stroke="#e4e9e6" rx="12"/><rect width="120" height="30" x="10" y="10" fill="#e8e8f5" rx="6"/><text x="70" y="30" fill="#433bff" font-family="Inter" font-size="12" font-weight="600" text-anchor="middle">Séance A - Push</text><text x="100" y="65" fill="#433bff" font-size="18" font-weight="700" text-anchor="middle">4 exercices • 16 séries</text><g fill="#64748b" font-family="Inter" font-size="11" text-anchor="middle"><text x="100" y="90">Développé couché • 4×6-8 • 85kg</text><text x="100" y="110">Développé militaire • 3×8-10 • 55kg</text><text x="100" y="130">Développé incliné • 3×10-12 • 40kg</text><text x="100" y="150">Élévations latérales • 3×15 • 12kg</text></g><rect width="410" height="160" x="430" fill="url(#c)" stroke="#e4e9e6" rx="12"/><rect width="120" height="30" x="440" y="10" fill="#e8f5e9" rx="6"/><text x="645" y="30" fill="#16a34a" font-family="Inter" font-size="12" font-weight="600" text-anchor="middle">Séance B - Pull</text><text x="645" y="65" fill="#16a34a" font-size="18" font-weight="700" text-anchor="middle">5 exercices • 18 séries</text><g fill="#64748b" font-family="Inter" font-size="11" text-anchor="middle"><text x="645" y="90">Tractions • 4×6-8 • Lesté 10kg</text><text x="645" y="110">Rowing barre • 4×8-10 • 70kg</text><text x="645" y="130">Face pulls • 3×15-20 • 15kg</text><text x="645" y="150">Curl marteau • 3×10-12 • 20kg</text></g></g><g transform="translate(340 400)"><rect width="410" height="160" fill="url(#c)" stroke="#e4e9e6" rx="12"/><rect width="120" height="30" x="10" y="10" fill="#fef3c7" rx="6"/><text x="70" y="30" fill="#ca8a04" font-family="Inter" font-size="12" font-weight="600" text-anchor="middle">Séance C - Legs</text><text x="100" y="65" fill="#ca8a04" font-size="18" font-weight="700" text-anchor="middle">6 exercices • 22 séries</text><g fill="#64748b" font-family="Inter" font-size="11" text-anchor="middle"><text x="100" y="90">Squat • 4×6-8 • 120kg</text><text x="100" y="110">Presse jambes • 3×12-15 • 180kg</text><text x="100" y="130">Fentes bulgares • 3×10-12 • 20kg</text><text x="100" y="150">Extensions jambes • 3×15-20 • 45kg</text></g><rect width="410" height="160" x="430" fill="url(#c)" stroke="#e4e9e6" rx="12"/><rect width="120" height="30" x="440" y="10" fill="#fef3c7" rx="6"/><text x="645" y="30" fill="#ca8a04" font-family="Inter" font-size="12" font-weight="600" text-anchor="middle">Séance D - Full Body</text><text x="645" y="65" fill="#ca8a04" font-size="18" font-weight="700" text-anchor="middle">5 exercices • 18 séries</text><g fill="#64748b" font-family="Inter" font-size="11" text-anchor="middle"><text x="645" y="90">Soulevé de terre • 3×5 • 140kg</text><text x="645" y="110">Dips • 3×8-10 • Poids corps</text><text x="645" y="130">Gainage • 3×60s</text><text x="645" y="150">Gainage latéral • 2×45s</text></g></g><rect width="860" height="100" x="300" y="580" fill="#fafafa" stroke="#e4e9e6" rx="12"/><text x="340" y="605" fill="#23211c" font-family="Inter" font-size="16" font-weight="600">Progression charge - Développé couché (12 semaines)</text><g fill="#433bff" opacity=".8" transform="translate(340 650)"><rect width="40" height="-80" x="30" y="60" rx="3"/><rect width="40" height="-95" x="90" y="60" rx="3"/><rect width="40" height="-105" x="150" y="60" rx="3"/><rect width="40" height="-110" x="210" y="60" rx="3"/><rect width="40" height="-105" x="270" y="60" rx="3"/><rect width="40" height="-115" x="330" y="60" rx="3"/><rect width="40" height="-118" x="390" y="60" rx="3"/><rect width="40" height="-120" x="450" y="60" rx="3"/><rect width="40" height="-122" x="510" y="60" rx="3"/><rect width="40" height="-125" x="570" y="60" rx="3"/><rect width="40" height="-128" x="630" y="60" fill="#22c55e" rx="3"/><rect width="40" height="-130" x="690" y="60" fill="#22c55e" rx="3"/></g><g fill="#94a3b8" font-family="Inter" font-size="10" text-anchor="middle"><text x="50" y="15" transform="translate(340 650)">S1</text><text x="110" y="15" transform="translate(340 650)">S2</text><text x="170" y="15" transform="translate(340 650)">S3</text><text x="230" y="15" transform="translate(340 650)">S4</text><text x="290" y="15" transform="translate(340 650)">S5</text><text x="350" y="15" transform="translate(340 650)">S6</text><text x="410" y="15" transform="translate(340 650)">S7</text><text x="470" y="15" transform="translate(340 650)">S8</text><text x="530" y="15" transform="translate(340 650)">S9</text><text x="590" y="15" transform="translate(340 650)">S10</text><text x="650" y="15" transform="translate(340 650)">S11</text><text x="710" y="15" transform="translate(340 650)">S12</text></g><rect width="380" height="56" x="340" y="600" fill="#433bff" filter="url(#b)" rx="12"/><text x="230" y="35" fill="#fff" font-family="Inter" font-size="15" font-weight="700" text-anchor="middle">Voir la progression complète</text><text x="370" y="35" fill="#fff" dominant-baseline="middle" font-size="14" text-anchor="middle">→</text><rect width="180" height="56" x="760" y="600" fill="transparent" stroke="#433bff" stroke-width="1.5" rx="12"/><text x="850" y="35" fill="#433bff" font-family="Inter" font-size="15" font-weight="600" text-anchor="middle">Créer séance</text></svg>